<?xml version="1.0" encoding="UTF-8" ?>
<!DOCTYPE svg PUBLIC "-//W3C//DTD SVG 1.1//EN" "http://www.w3.org/Graphics/SVG/1.1/DTD/svg11.dtd">
<svg width="54pt" height="54pt" viewBox="0 0 54 54" version="1.1" xmlns="http://www.w3.org/2000/svg">
<g id="#33b8ccff">
<path fill="#33b8cc" opacity="1.00" d=" M 25.43 0.00 L 28.51 0.00 C 41.67 0.57 53.02 11.77 54.00 24.86 L 54.00 28.88 C 53.20 41.90 42.10 53.06 29.11 54.00 L 25.50 54.00 C 12.16 53.45 0.61 41.90 0.00 28.57 L 0.00 25.50 C 0.57 12.16 12.10 0.61 25.43 0.00 M 17.59 17.60 C 16.35 17.99 15.08 18.32 13.89 18.86 C 13.24 20.17 12.98 21.62 12.54 23.01 C 14.09 22.99 15.63 22.97 17.18 22.95 C 18.30 20.58 20.70 20.60 21.83 22.96 C 24.94 23.01 28.06 23.01 31.17 22.96 C 32.29 20.59 34.69 20.60 35.83 22.94 C 37.37 22.97 38.91 22.99 40.46 23.01 C 40.04 21.64 39.74 20.22 39.15 18.91 C 37.96 18.33 36.66 18.01 35.41 17.59 C 34.69 16.19 34.87 13.68 32.98 13.27 C 28.70 12.75 24.30 12.76 20.01 13.27 C 18.11 13.66 18.31 16.19 17.59 17.60 M 13.01 23.97 C 13.07 28.01 12.67 32.08 13.28 36.09 C 13.81 38.16 16.36 37.91 18.02 38.01 C 23.68 38.03 29.35 38.03 35.02 38.01 C 36.67 37.93 39.21 38.14 39.72 36.06 C 40.33 32.06 39.93 28.00 39.99 23.97 C 38.60 24.00 37.21 24.03 35.82 24.06 C 34.69 26.43 32.29 26.39 31.17 24.04 C 28.06 23.99 24.94 23.99 21.83 24.04 C 20.72 26.41 18.31 26.40 17.18 24.06 C 15.79 24.03 14.40 24.00 13.01 23.97 Z" />
<path fill="#33b8cc" opacity="1.00" d=" M 20.17 15.05 C 24.39 14.98 28.60 14.98 32.82 15.05 C 32.88 15.79 33.00 17.26 33.06 18.00 C 28.69 18.00 24.32 18.00 19.94 18.00 C 20.00 17.26 20.11 15.79 20.17 15.05 Z" />
</g>
<g id="#ffffffff">
<path fill="#ffffff" opacity="1.00" d=" M 17.59 17.60 C 18.31 16.19 18.11 13.66 20.01 13.27 C 24.30 12.76 28.70 12.75 32.98 13.27 C 34.87 13.68 34.69 16.19 35.41 17.59 C 36.66 18.01 37.96 18.33 39.15 18.91 C 39.74 20.22 40.04 21.64 40.46 23.01 C 38.91 22.99 37.37 22.97 35.83 22.94 C 34.69 20.60 32.29 20.59 31.17 22.96 C 28.06 23.01 24.94 23.01 21.83 22.96 C 20.70 20.60 18.30 20.58 17.18 22.95 C 15.63 22.97 14.09 22.99 12.54 23.01 C 12.98 21.62 13.24 20.17 13.89 18.86 C 15.08 18.32 16.35 17.99 17.59 17.60 M 20.17 15.05 C 20.11 15.79 20.00 17.26 19.94 18.00 C 24.32 18.00 28.69 18.00 33.06 18.00 C 33.00 17.26 32.88 15.79 32.82 15.05 C 28.60 14.98 24.39 14.98 20.17 15.05 Z" />
<path fill="#ffffff" opacity="1.00" d=" M 13.01 23.97 C 14.40 24.00 15.79 24.03 17.18 24.06 C 18.31 26.40 20.72 26.41 21.83 24.04 C 24.94 23.99 28.06 23.99 31.17 24.04 C 32.29 26.39 34.69 26.43 35.82 24.06 C 37.21 24.03 38.60 24.00 39.99 23.97 C 39.93 28.00 40.33 32.06 39.72 36.06 C 39.21 38.14 36.67 37.93 35.02 38.01 C 29.35 38.03 23.68 38.03 18.02 38.01 C 16.36 37.91 13.81 38.16 13.28 36.09 C 12.67 32.08 13.07 28.01 13.01 23.97 Z" />
</g>
</svg>
