<?xml version="1.0" encoding="UTF-8" ?>
<!DOCTYPE svg PUBLIC "-//W3C//DTD SVG 1.1//EN" "http://www.w3.org/Graphics/SVG/1.1/DTD/svg11.dtd">
<svg width="956pt" height="940pt" viewBox="0 0 956 940" version="1.1" xmlns="http://www.w3.org/2000/svg">
<g id="#ffffffff">
<path fill="#ffffff" opacity="1.00" d=" M 288.86 151.63 C 351.95 115.98 425.87 100.14 498.05 106.24 C 568.99 111.90 637.96 139.11 693.76 183.25 C 746.24 224.49 787.15 280.32 810.39 342.90 C 835.58 410.13 840.08 484.81 823.66 554.66 C 816.98 554.68 810.32 554.65 803.65 554.67 C 822.52 479.11 815.22 397.19 782.51 326.44 C 755.66 267.60 711.78 216.77 657.78 181.24 C 629.14 162.39 597.67 147.86 564.78 138.24 C 511.76 122.75 455.02 120.33 400.82 130.88 C 338.21 143.06 279.21 173.10 232.52 216.56 C 185.53 259.87 150.95 316.45 133.95 378.06 C 117.57 437.21 117.27 500.72 133.07 560.02 C 134.71 566.83 137.47 573.31 139.57 579.97 C 139.90 584.14 142.21 587.69 143.23 591.66 C 165.72 652.68 206.22 706.74 257.88 746.14 C 315.12 789.99 386.39 815.17 458.49 816.75 C 527.30 818.81 596.51 799.57 654.38 762.31 C 716.23 722.71 765.08 663.04 791.14 594.33 C 658.75 594.34 526.36 594.33 393.97 594.33 C 381.88 594.09 369.74 594.85 357.68 593.89 C 352.54 591.50 349.34 585.56 349.99 579.97 C 350.02 491.31 349.99 402.66 350.00 314.00 C 354.90 314.00 359.79 313.99 364.69 314.01 C 364.00 327.98 364.47 341.98 364.33 355.97 C 364.34 427.66 364.32 499.34 364.34 571.02 C 364.36 574.93 365.78 579.00 369.14 581.26 C 384.76 580.66 400.43 581.17 416.07 581.00 C 549.51 581.00 682.95 580.99 816.40 581.00 C 798.84 636.73 767.55 688.01 726.20 729.27 C 683.99 771.54 631.30 803.31 574.10 820.60 C 498.03 843.80 414.39 841.30 339.90 813.39 C 276.19 789.74 219.50 747.76 178.05 693.93 C 134.36 637.58 107.82 568.16 102.93 497.02 C 97.72 426.11 113.66 353.76 148.65 291.82 C 181.37 233.43 230.45 184.34 288.86 151.63 Z" />
<path fill="#ffffff" opacity="1.00" d=" M 676.00 314.00 C 680.89 314.00 685.78 313.99 690.67 314.01 C 690.66 370.00 690.67 425.99 690.67 481.99 C 690.65 485.09 690.60 488.20 690.81 491.31 C 717.72 458.68 744.24 425.72 771.04 393.00 C 776.73 393.01 782.42 392.99 788.11 393.01 C 770.64 414.29 753.15 435.56 735.70 456.86 C 756.00 489.30 776.42 521.66 796.69 554.12 C 791.27 554.55 785.83 554.25 780.40 554.32 C 762.61 525.51 744.78 496.73 726.97 467.94 C 714.86 482.01 702.82 496.16 690.68 510.22 C 690.64 524.92 690.68 539.63 690.66 554.34 C 685.77 554.33 680.88 554.33 676.00 554.33 C 676.00 474.22 676.00 394.11 676.00 314.00 Z" />
<path fill="#ffffff" opacity="1.00" d=" M 206.61 389.81 C 221.94 387.17 238.46 390.45 251.03 399.82 C 264.86 409.92 273.34 425.82 277.45 442.17 C 281.82 460.02 282.10 478.81 278.91 496.88 C 275.60 515.04 267.57 533.15 253.07 545.11 C 241.24 555.06 225.20 559.33 209.95 557.47 C 195.06 555.90 181.28 547.73 172.07 536.03 C 158.88 519.45 153.77 497.88 153.15 477.05 C 152.58 455.95 156.19 433.91 167.90 415.96 C 176.56 402.49 190.66 392.36 206.61 389.81 M 205.53 400.76 C 197.40 402.71 189.93 407.09 184.12 413.08 C 172.22 425.27 166.98 442.36 165.20 458.94 C 163.45 477.50 164.76 496.79 171.89 514.19 C 176.96 526.56 185.86 537.95 198.30 543.49 C 212.85 550.01 230.91 548.36 243.71 538.71 C 255.97 529.61 262.94 515.11 266.37 500.55 C 270.24 483.35 270.40 465.30 266.98 448.00 C 263.81 432.77 256.81 417.45 243.97 408.04 C 233.11 399.96 218.58 397.59 205.53 400.76 Z" />
<path fill="#ffffff" opacity="1.00" d=" M 534.15 399.39 C 545.86 391.70 560.12 387.71 574.12 389.33 C 584.06 390.12 594.18 393.55 601.30 400.77 C 608.69 408.04 612.48 418.14 614.39 428.14 C 616.90 440.94 616.26 454.04 616.33 467.01 C 616.33 496.12 616.34 525.22 616.33 554.33 C 611.44 554.33 606.55 554.33 601.67 554.33 C 601.66 523.88 601.67 493.43 601.67 462.98 C 601.68 449.07 602.10 434.58 596.68 421.49 C 593.54 413.71 587.21 407.17 579.14 404.56 C 565.76 400.26 550.60 402.34 538.70 409.76 C 528.59 415.98 519.80 424.19 511.72 432.79 C 511.59 473.30 511.71 513.82 511.66 554.33 C 506.77 554.33 501.89 554.33 497.00 554.33 C 497.00 500.56 497.00 446.78 497.00 393.00 C 501.20 393.00 505.41 393.00 509.62 393.00 C 510.14 401.43 510.39 409.87 511.09 418.29 C 518.66 411.88 525.61 404.61 534.15 399.39 Z" />
<path fill="#ffffff" opacity="1.00" d=" M 425.28 393.01 C 429.63 392.99 433.98 393.00 438.33 393.00 C 438.33 446.78 438.34 500.55 438.33 554.33 C 433.98 554.33 429.63 554.33 425.28 554.33 C 425.28 500.56 425.29 446.78 425.28 393.01 Z" />
</g>
<g id="#00b487fe">
<path fill="#00b487" opacity="1.00" d=" M 426.24 333.47 C 430.40 333.32 434.58 333.31 438.74 333.47 C 438.94 333.66 439.34 334.03 439.54 334.22 C 439.59 338.46 439.91 342.76 439.25 346.97 C 434.76 346.93 430.27 346.91 425.78 346.98 C 425.02 342.77 425.44 338.44 425.46 334.19 C 425.65 334.01 426.04 333.65 426.24 333.47 Z" />
</g>
<g id="#4db5c6d1">
<path fill="#4db5c6" opacity="0.82" d=" M 298.13 463.16 C 309.09 462.87 320.07 463.14 331.04 463.03 C 332.78 462.84 334.99 463.45 335.45 465.39 C 335.66 468.32 335.88 471.36 335.33 474.27 C 334.53 476.51 331.93 476.26 330.01 476.27 C 319.36 476.13 308.70 476.42 298.06 476.13 C 295.31 475.34 295.73 472.14 295.72 469.93 C 295.78 467.51 295.14 464.07 298.13 463.16 Z" />
</g>
</svg>
