<?xml version="1.0" encoding="UTF-8" ?>
<!DOCTYPE svg PUBLIC "-//W3C//DTD SVG 1.1//EN" "http://www.w3.org/Graphics/SVG/1.1/DTD/svg11.dtd">
<svg width="1097pt" height="1097pt" viewBox="0 0 1097 1097" version="1.1" xmlns="http://www.w3.org/2000/svg">
<g id="#ffffffff">
<path fill="#ffffff" opacity="1.00" d=" M 536.54 0.00 L 559.51 0.00 C 638.72 1.67 717.59 20.36 788.78 55.19 C 853.60 86.74 912.02 131.30 959.73 185.33 C 1023.25 257.00 1067.53 345.57 1086.26 439.51 C 1092.52 470.45 1095.97 501.93 1097.00 533.47 L 1097.00 564.70 C 1095.80 600.46 1091.53 636.16 1083.38 671.01 C 1083.02 672.58 1082.54 674.83 1080.42 674.51 C 1071.13 674.78 1061.83 674.55 1052.53 674.61 C 1074.14 586.70 1072.94 493.10 1048.04 406.00 C 1032.59 352.07 1008.40 300.65 976.60 254.44 C 943.72 206.60 902.75 164.35 855.94 130.01 C 792.77 83.60 719.01 51.55 641.84 37.61 C 601.03 30.41 559.37 27.49 517.98 30.11 C 449.04 34.77 380.62 51.71 318.62 82.49 C 255.48 113.54 199.62 158.48 153.59 211.53 C 108.34 263.66 74.18 325.28 53.59 391.16 C 36.19 445.93 27.79 503.57 29.41 561.04 C 30.49 608.20 37.93 655.24 51.90 700.30 C 53.33 705.34 56.47 709.79 57.13 715.06 C 58.03 720.82 60.59 726.12 62.50 731.59 C 87.16 797.18 125.38 857.59 173.91 908.12 C 249.21 986.84 349.85 1040.96 457.17 1059.83 C 498.01 1066.90 539.69 1069.51 581.07 1066.86 C 658.96 1061.50 736.08 1039.85 803.98 1000.98 C 835.19 983.24 864.44 962.10 891.35 938.34 C 917.92 914.91 942.41 889.05 963.74 860.73 C 987.93 828.76 1008.17 793.83 1024.23 757.10 C 1027.29 749.53 1031.08 742.19 1033.18 734.29 C 821.11 734.25 609.03 734.04 396.96 734.14 C 390.81 734.06 383.74 734.49 378.75 730.24 C 373.16 725.18 371.75 717.21 371.99 710.00 C 372.13 579.30 372.16 448.59 372.11 317.88 C 372.26 316.44 371.92 313.80 373.98 313.68 C 379.97 313.27 386.01 313.57 392.02 313.47 C 394.53 313.20 394.31 316.30 394.22 317.96 C 393.16 325.92 393.57 333.96 393.50 341.97 C 393.51 460.32 393.49 578.66 393.51 697.01 C 393.59 703.25 394.86 711.15 401.13 714.14 C 491.74 713.82 582.39 714.09 673.01 714.00 C 805.77 714.02 938.53 713.97 1071.29 714.02 C 1070.27 720.70 1067.20 726.89 1065.22 733.33 C 1041.85 799.05 1005.74 860.22 959.20 912.20 C 911.79 965.75 854.08 1010.32 789.63 1041.49 C 755.58 1058.05 719.82 1071.09 683.15 1080.52 C 644.01 1090.42 603.76 1095.69 563.43 1097.00 L 533.46 1097.00 C 442.76 1094.54 352.74 1069.31 274.24 1023.75 C 220.91 992.93 172.85 953.03 132.69 906.34 C 87.68 854.04 52.49 793.25 29.98 728.00 C 11.39 674.19 1.24 617.49 0.00 560.57 L 0.00 537.56 C 1.51 469.13 15.55 400.93 41.94 337.74 C 70.83 268.19 114.36 204.80 168.73 152.70 C 221.67 101.86 284.88 61.74 353.50 35.66 C 411.89 13.45 474.10 1.47 536.54 0.00 Z" />
<path fill="#ffffff" opacity="1.00" d=" M 861.13 316.86 C 860.88 315.11 861.92 313.16 863.95 313.54 C 870.29 313.60 876.68 313.16 882.99 313.78 C 883.32 402.00 883.01 490.23 883.15 578.45 C 884.97 578.02 885.90 576.24 887.09 574.98 C 925.39 527.95 963.70 480.94 1001.97 433.90 C 1003.13 432.35 1005.19 432.02 1007.02 432.06 C 1014.20 432.20 1021.39 432.04 1028.58 432.17 C 1027.39 434.95 1025.13 437.01 1023.30 439.34 C 999.76 468.10 976.11 496.78 952.59 525.55 C 951.00 526.97 951.05 528.95 952.39 530.53 C 982.14 578.09 1012.08 625.54 1041.78 673.14 C 1034.75 675.15 1027.21 673.65 1019.98 674.05 C 1017.19 674.65 1016.18 671.68 1015.01 669.84 C 992.64 633.59 970.20 597.38 947.78 561.17 C 944.25 555.79 941.32 550.00 937.34 544.94 C 921.68 562.77 906.43 580.97 890.87 598.89 C 888.77 601.44 886.35 603.74 884.58 606.55 C 882.33 610.33 883.33 614.87 883.13 619.03 C 882.98 637.29 883.41 655.58 882.91 673.83 C 877.31 674.54 871.67 673.70 866.06 674.10 C 864.43 673.96 861.99 674.71 861.13 672.84 C 861.11 554.18 861.12 435.52 861.13 316.86 Z" />
<path fill="#ffffff" opacity="1.00" d=" M 486.56 342.65 C 492.53 342.27 498.55 342.37 504.54 342.57 C 505.68 342.55 506.69 343.78 506.58 344.90 C 506.66 350.24 506.67 355.59 506.57 360.93 C 506.64 362.35 505.32 363.52 503.92 363.40 C 498.93 363.63 493.94 363.47 488.95 363.49 C 487.37 363.57 485.09 363.15 485.07 361.15 C 484.88 356.43 485.06 351.71 484.99 346.99 C 485.05 345.48 484.70 343.24 486.56 342.65 Z" />
<path fill="#ffffff" opacity="1.00" d=" M 159.57 426.76 C 180.94 423.49 203.57 428.30 221.43 440.59 C 237.49 451.45 249.12 467.83 256.63 485.52 C 264.55 503.95 267.65 524.05 268.58 543.98 C 269.55 567.24 266.56 590.78 258.85 612.80 C 252.66 630.46 242.38 646.90 228.05 659.08 C 215.53 670.01 199.71 677.18 183.14 678.86 C 165.75 680.63 147.62 677.93 132.14 669.56 C 118.05 662.06 106.68 650.19 98.12 636.84 C 87.77 620.60 81.97 601.85 78.92 582.94 C 75.27 558.08 75.89 532.50 81.45 507.96 C 87.04 484.56 98.20 461.60 116.83 445.86 C 128.92 435.66 143.93 429.04 159.57 426.76 M 160.52 442.70 C 143.56 445.40 128.10 455.06 117.68 468.62 C 101.93 488.83 95.65 514.80 94.24 539.97 C 93.01 562.97 95.03 586.45 102.81 608.26 C 107.95 622.65 115.99 636.28 127.45 646.53 C 140.82 658.49 159.07 664.84 176.99 663.54 C 191.91 662.59 206.37 656.39 217.52 646.45 C 230.18 635.24 238.72 619.97 243.55 603.89 C 250.94 580.08 252.97 554.69 249.87 529.98 C 248.07 515.94 245.26 501.87 239.43 488.90 C 233.09 474.91 223.81 461.76 210.85 453.19 C 196.25 443.38 177.81 439.65 160.52 442.70 Z" />
<path fill="#ffffff" opacity="1.00" d=" M 661.47 434.29 C 676.83 426.94 694.32 424.75 711.14 426.65 C 725.82 428.46 740.65 434.13 750.73 445.32 C 762.89 458.58 768.02 476.62 770.18 494.10 C 771.93 507.34 771.44 520.72 771.50 534.04 C 771.50 577.68 771.50 621.33 771.50 664.98 C 771.45 667.99 771.73 671.04 771.15 674.02 C 764.42 674.15 757.67 674.24 750.95 674.01 C 749.43 673.90 749.32 672.21 749.40 671.09 C 749.35 623.74 749.39 576.40 749.38 529.05 C 749.67 509.65 749.12 489.40 740.53 471.58 C 735.36 460.75 725.58 452.29 714.04 448.94 C 695.13 443.40 674.15 446.40 657.09 456.09 C 642.39 464.43 630.19 476.35 618.08 487.98 C 616.44 489.65 614.17 491.40 614.51 494.04 C 614.51 553.34 614.47 612.63 614.53 671.93 C 614.73 673.85 612.52 674.34 611.05 674.13 C 605.36 673.82 599.67 674.18 594.00 674.03 C 592.42 673.87 592.30 672.16 592.38 670.96 C 592.38 592.65 592.37 514.33 592.39 436.01 C 592.47 434.66 591.94 432.27 593.99 432.20 C 599.36 432.04 604.74 432.11 610.12 432.14 C 611.84 432.57 611.53 434.63 611.72 435.97 C 612.24 447.09 613.12 458.18 613.56 469.29 C 614.69 468.94 615.88 468.62 616.67 467.66 C 630.05 454.68 644.43 442.21 661.47 434.29 Z" />
<path fill="#ffffff" opacity="1.00" d=" M 486.27 432.39 C 492.04 431.68 497.99 431.92 503.80 432.21 C 503.96 432.50 504.29 433.09 504.45 433.38 C 504.56 512.88 504.49 592.39 504.48 671.90 C 504.90 673.92 502.47 674.32 501.00 674.13 C 496.33 673.87 491.67 674.15 487.01 674.07 C 485.28 674.21 484.73 672.37 484.99 671.01 C 485.01 592.64 484.99 514.27 485.01 435.90 C 485.11 434.71 484.88 432.93 486.27 432.39 Z" />
<path fill="#ffffff" opacity="1.00" d=" M 294.34 537.43 C 311.22 537.02 328.14 537.35 345.04 537.26 C 347.44 537.07 350.19 538.41 350.32 541.10 C 350.72 545.35 350.82 549.70 350.17 553.94 C 349.59 556.75 346.40 557.44 343.95 557.37 C 328.64 557.39 313.33 557.37 298.02 557.38 C 295.38 557.39 291.77 557.04 290.92 554.00 C 290.01 550.41 290.41 546.63 290.43 542.97 C 290.34 540.54 291.64 537.69 294.34 537.43 Z" />
</g>
</svg>
