<?xml version="1.0" encoding="UTF-8" ?>
<!DOCTYPE svg PUBLIC "-//W3C//DTD SVG 1.1//EN" "http://www.w3.org/Graphics/SVG/1.1/DTD/svg11.dtd">
<svg width="1097pt" height="1097pt" viewBox="0 0 1097 1097" version="1.1" xmlns="http://www.w3.org/2000/svg">
<g id="#ffffffff">
<path fill="#ffffff" opacity="1.00" d=" M 538.30 0.00 L 558.57 0.00 C 603.56 1.00 648.47 7.13 691.92 18.94 C 766.37 38.99 836.38 75.16 895.97 124.07 C 979.66 192.46 1042.53 286.03 1073.63 389.58 C 1088.26 437.77 1095.90 487.98 1097.00 538.31 L 1097.00 557.81 C 1096.18 597.07 1091.51 636.27 1082.46 674.50 C 1072.46 674.51 1062.46 674.49 1052.46 674.50 C 1075.77 580.88 1072.58 480.73 1042.86 388.91 C 1026.62 338.69 1002.71 290.94 972.10 247.92 C 933.72 194.02 885.06 147.43 829.42 111.59 C 762.69 68.59 685.97 41.15 607.05 32.43 C 549.01 25.99 489.87 29.09 432.91 42.06 C 360.09 58.60 290.96 91.18 231.84 136.81 C 174.91 180.75 127.02 236.43 92.57 299.59 C 58.99 361.01 37.96 429.28 31.49 499.00 C 25.43 563.84 31.26 629.87 49.37 692.47 C 52.09 698.40 53.22 704.90 56.02 710.80 C 57.12 715.52 57.52 720.62 60.29 724.76 C 64.14 738.05 70.03 750.66 75.55 763.33 C 107.53 833.96 155.79 897.02 215.20 946.79 C 296.42 1015.19 399.19 1057.59 505.07 1066.04 C 553.70 1070.01 602.90 1067.35 650.76 1057.79 C 727.56 1042.48 800.75 1009.38 862.99 961.85 C 939.49 903.61 999.55 823.92 1033.71 734.00 C 826.47 734.00 619.22 734.00 411.98 734.00 C 402.58 733.90 393.13 734.36 383.81 733.45 C 381.00 731.65 377.39 730.34 376.02 727.04 C 374.62 723.74 371.69 720.86 371.98 717.06 C 372.03 582.54 371.97 448.01 372.01 313.49 C 379.34 313.50 386.66 313.51 393.99 313.49 C 394.29 318.33 393.25 323.13 393.49 327.98 C 393.52 451.62 393.49 575.27 393.50 698.91 C 393.62 704.91 395.64 711.89 401.59 714.56 C 403.04 714.18 404.52 713.98 406.03 713.99 C 627.89 714.02 849.74 713.99 1071.60 714.00 C 1049.14 785.18 1011.82 851.59 962.85 907.91 C 915.54 962.47 857.37 1007.59 792.71 1039.78 C 720.27 1076.00 639.67 1095.43 558.72 1097.00 L 538.33 1097.00 C 493.70 1096.00 449.14 1089.95 406.02 1078.31 C 354.79 1064.58 305.58 1043.30 260.49 1015.39 C 208.22 983.11 161.45 941.96 122.70 894.29 C 73.96 834.43 38.03 764.16 18.30 689.52 C 6.84 646.56 0.89 602.20 0.00 557.77 L 0.00 539.22 C 1.20 473.63 13.94 408.22 38.11 347.20 C 65.59 277.48 107.65 213.57 160.68 160.63 C 213.45 107.79 277.09 65.85 346.54 38.38 C 407.46 14.14 472.78 1.35 538.30 0.00 Z" />
<path fill="#ffffff" opacity="1.00" d=" M 861.03 313.48 C 868.34 313.51 875.65 313.52 882.96 313.47 C 883.07 401.38 882.94 489.28 883.02 577.19 C 883.18 577.68 883.50 578.66 883.66 579.15 C 923.58 530.12 963.56 481.13 1003.42 432.05 C 1012.00 431.94 1020.58 432.02 1029.16 432.01 C 1002.97 463.94 976.74 495.84 950.55 527.78 C 980.96 576.38 1011.52 624.89 1041.94 673.48 C 1033.96 674.66 1025.75 673.65 1017.68 674.03 C 990.90 630.85 964.21 587.62 937.47 544.42 C 919.25 565.52 901.20 586.77 883.00 607.88 C 883.00 629.92 883.00 651.96 883.00 674.00 C 875.66 674.00 868.33 674.00 861.00 674.00 C 861.02 553.83 860.96 433.65 861.03 313.48 Z" />
<path fill="#ffffff" opacity="1.00" d=" M 159.61 426.78 C 178.33 424.21 198.00 427.24 214.58 436.49 C 231.23 445.69 244.28 460.61 252.70 477.54 C 262.88 497.45 267.29 519.85 268.35 542.05 C 269.34 567.08 266.58 592.60 257.42 616.05 C 250.36 634.11 239.14 650.91 223.49 662.62 C 196.48 683.20 156.79 684.91 128.00 666.98 C 112.02 657.18 99.86 642.03 91.77 625.27 C 82.73 606.50 78.33 585.76 77.04 565.04 C 75.52 539.23 78.10 512.80 87.49 488.56 C 94.66 470.11 106.35 453.00 122.62 441.45 C 133.51 433.63 146.34 428.63 159.61 426.78 M 159.52 442.75 C 145.26 445.21 132.02 452.58 122.18 463.16 C 108.15 478.00 100.50 497.75 96.75 517.57 C 92.80 539.46 92.75 562.07 96.38 584.01 C 99.77 603.56 106.71 623.02 119.51 638.46 C 129.26 650.30 142.90 659.12 158.03 662.13 C 175.57 665.76 194.66 662.68 209.61 652.63 C 222.95 643.85 232.66 630.47 239.04 616.00 C 247.86 595.92 251.02 573.78 251.09 551.98 C 251.08 529.86 247.86 507.34 238.59 487.09 C 231.93 472.62 221.67 459.42 207.86 451.18 C 193.52 442.49 175.94 439.84 159.52 442.75 Z" />
<path fill="#ffffff" opacity="1.00" d=" M 663.45 433.43 C 682.61 424.89 704.78 423.85 724.87 429.61 C 738.55 433.50 750.59 442.68 757.82 454.95 C 768.24 472.36 770.67 493.09 771.49 512.98 C 771.56 566.62 771.41 620.27 771.56 673.91 C 764.21 674.11 756.85 673.96 749.49 673.98 C 749.47 621.65 749.57 569.31 749.44 516.98 C 748.76 499.20 747.03 480.28 736.76 465.15 C 729.45 454.23 716.74 448.02 703.90 446.68 C 688.00 444.55 671.46 447.67 657.55 455.70 C 641.30 464.90 627.84 478.10 614.74 491.22 C 614.17 500.39 614.67 509.73 614.50 518.97 C 614.52 570.63 614.46 622.29 614.53 673.95 C 607.18 674.03 599.82 674.02 592.47 673.96 C 592.50 593.33 592.55 512.70 592.45 432.08 C 598.80 431.95 605.17 431.94 611.53 432.09 C 612.12 444.63 612.59 457.21 613.67 469.73 C 615.79 469.03 617.12 467.10 618.73 465.67 C 631.98 452.90 646.42 440.82 663.45 433.43 Z" />
<path fill="#ffffff" opacity="1.00" d=" M 484.93 432.00 C 491.47 432.03 498.00 431.93 504.54 432.06 C 504.46 512.70 504.51 593.33 504.52 673.97 C 497.99 674.03 491.46 673.98 484.93 674.00 C 484.93 593.33 484.93 512.67 484.93 432.00 Z" />
</g>
<g id="#00b487ff">
<path fill="#00b487" opacity="1.00" d=" M 485.14 343.90 C 485.36 343.60 485.80 343.00 486.02 342.70 C 492.37 342.47 498.74 342.58 505.09 342.64 C 505.42 342.92 506.06 343.48 506.38 343.77 C 506.49 349.88 506.35 356.01 506.42 362.13 C 504.49 363.29 502.18 362.85 500.05 362.93 C 495.45 362.82 490.85 363.06 486.26 362.83 C 485.98 362.57 485.43 362.07 485.15 361.81 C 485.03 355.85 485.06 349.87 485.14 343.90 Z" />
</g>
<g id="#1f1f1f35">
<path fill="#1f1f1f" opacity="0.21" d=" M 169.49 398.20 C 170.81 397.36 171.60 397.57 171.84 398.84 C 170.52 399.65 169.74 399.44 169.49 398.20 Z" />
</g>
<g id="#33b5cbff">
<path fill="#33b5cb" opacity="1.00" d=" M 294.19 537.31 C 311.13 536.97 328.10 537.25 345.05 537.17 C 347.69 536.92 350.46 539.21 350.32 541.95 C 350.37 545.29 350.37 548.64 350.32 551.98 C 350.50 554.76 347.70 557.11 345.02 556.84 C 328.34 556.81 311.66 556.91 294.99 556.79 C 291.68 556.54 290.07 552.92 290.65 549.95 C 291.11 545.69 288.87 539.21 294.19 537.31 Z" />
</g>
</svg>
