<?xml version="1.0" encoding="UTF-8" ?>
<!DOCTYPE svg PUBLIC "-//W3C//DTD SVG 1.1//EN" "http://www.w3.org/Graphics/SVG/1.1/DTD/svg11.dtd">
<svg width="54pt" height="54pt" viewBox="0 0 54 54" version="1.1" xmlns="http://www.w3.org/2000/svg">
<g id="#33b8ccff">
<path fill="#33b8cc" opacity="1.00" d=" M 25.49 0.00 L 28.41 0.00 C 41.64 0.51 53.09 11.80 54.00 24.97 L 54.00 28.71 C 53.31 41.82 42.10 53.12 29.02 54.00 L 25.59 54.00 C 12.19 53.50 0.57 41.88 0.00 28.50 L 0.00 25.59 C 0.52 12.20 12.10 0.57 25.49 0.00 M 13.60 18.09 C 17.29 21.43 21.30 24.39 25.17 27.51 C 29.15 24.40 33.12 21.27 37.00 18.03 C 29.20 18.01 21.40 17.91 13.60 18.09 M 25.05 28.66 C 21.00 25.55 17.08 22.27 13.02 19.16 C 13.10 24.06 12.76 28.98 13.16 33.87 C 13.41 34.11 13.91 34.60 14.16 34.85 C 19.33 35.22 24.52 34.91 29.70 34.99 C 29.78 32.14 32.32 31.72 34.61 31.88 C 35.27 30.50 36.55 29.91 37.98 29.61 C 38.04 26.00 38.01 22.38 37.93 18.77 C 33.53 21.92 29.57 25.65 25.05 28.66 M 36.37 31.01 C 36.21 31.50 35.89 32.48 35.74 32.97 C 34.19 32.97 32.65 33.10 31.10 33.08 C 31.07 34.35 31.06 35.63 31.07 36.90 C 32.63 36.86 34.19 37.05 35.75 37.03 C 35.91 37.55 36.22 38.59 36.38 39.11 C 39.17 38.74 41.30 36.54 43.55 35.01 C 41.31 33.54 39.16 31.08 36.37 31.01 Z" />
</g>
<g id="#ffffffff">
<path fill="#ffffff" opacity="1.00" d=" M 13.60 18.09 C 21.40 17.91 29.20 18.01 37.00 18.03 C 33.12 21.27 29.15 24.40 25.17 27.51 C 21.30 24.39 17.29 21.43 13.60 18.09 Z" />
<path fill="#ffffff" opacity="1.00" d=" M 25.05 28.66 C 29.57 25.65 33.53 21.92 37.93 18.77 C 38.01 22.38 38.04 26.00 37.98 29.61 C 36.55 29.91 35.27 30.50 34.61 31.88 C 32.32 31.72 29.78 32.14 29.70 34.99 C 24.52 34.91 19.33 35.22 14.16 34.85 C 13.91 34.60 13.41 34.11 13.16 33.87 C 12.76 28.98 13.10 24.06 13.02 19.16 C 17.08 22.27 21.00 25.55 25.05 28.66 Z" />
<path fill="#ffffff" opacity="1.00" d=" M 36.37 31.01 C 39.16 31.08 41.31 33.54 43.55 35.01 C 41.30 36.54 39.17 38.74 36.38 39.11 C 36.22 38.59 35.91 37.55 35.75 37.03 C 34.19 37.05 32.63 36.86 31.07 36.90 C 31.06 35.63 31.07 34.35 31.10 33.08 C 32.65 33.10 34.19 32.97 35.74 32.97 C 35.89 32.48 36.21 31.50 36.37 31.01 Z" />
</g>
</svg>
