<?xml version="1.0" encoding="UTF-8" ?>
<!DOCTYPE svg PUBLIC "-//W3C//DTD SVG 1.1//EN" "http://www.w3.org/Graphics/SVG/1.1/DTD/svg11.dtd">
<svg width="1097pt" height="1097pt" viewBox="0 0 1097 1097" version="1.1" xmlns="http://www.w3.org/2000/svg">
<g id="#030303ff">
<path fill="#030303" opacity="1.00" d=" M 536.34 0.00 L 564.33 0.00 C 603.31 1.54 642.22 6.43 680.11 15.87 C 755.03 34.20 825.88 68.77 886.56 116.37 C 972.80 183.71 1038.27 277.34 1071.30 381.70 C 1086.93 430.71 1095.39 481.93 1097.00 533.33 L 1097.00 568.41 C 1095.44 600.01 1092.04 631.59 1085.28 662.53 C 1084.31 666.43 1083.93 670.56 1082.15 674.22 C 1072.33 675.14 1062.39 674.41 1052.53 674.58 C 1073.65 588.77 1072.97 497.54 1049.77 412.22 C 1035.64 360.44 1013.46 310.86 984.23 265.85 C 951.05 214.75 908.81 169.56 860.04 133.05 C 797.90 86.43 725.20 53.88 648.94 38.93 C 606.54 30.85 563.15 27.48 520.03 29.99 C 450.39 34.42 381.24 51.41 318.62 82.49 C 255.70 113.44 200.00 158.17 154.06 210.98 C 108.69 263.11 74.41 324.76 53.74 390.70 C 36.56 444.65 28.07 501.38 29.34 558.02 C 30.21 606.44 37.68 654.80 52.15 701.04 C 53.67 705.77 56.44 710.08 57.13 715.07 C 58.10 720.82 60.55 726.15 62.51 731.60 C 88.42 800.48 129.25 863.71 181.36 915.67 C 256.46 991.14 355.37 1042.59 460.37 1060.39 C 505.41 1067.85 551.44 1070.09 596.91 1065.53 C 670.59 1058.41 743.09 1036.45 807.17 999.15 C 836.78 982.03 864.58 961.85 890.27 939.29 C 916.89 915.92 941.44 890.14 962.85 861.90 C 990.02 826.21 1012.24 786.81 1029.22 745.31 C 1030.75 741.69 1032.35 738.08 1033.17 734.22 C 820.77 734.36 608.36 733.98 395.96 734.15 C 390.52 734.07 384.56 734.24 379.84 731.11 C 374.28 726.95 372.10 719.69 372.04 713.00 C 371.85 660.34 372.18 607.68 372.12 555.01 C 372.12 476.00 372.13 396.99 372.12 317.98 C 372.17 316.26 372.03 313.67 374.39 313.63 C 380.44 313.39 386.54 313.37 392.60 313.57 C 394.73 313.77 394.12 316.48 394.20 317.97 C 392.94 329.27 393.70 340.65 393.50 352.00 C 393.51 467.00 393.49 582.00 393.51 697.00 C 393.61 703.20 394.82 711.10 401.06 714.08 C 624.49 713.92 847.94 714.02 1071.38 714.02 C 1069.92 721.39 1066.80 728.28 1064.48 735.40 C 1040.87 801.01 1004.50 862.00 957.79 913.78 C 912.12 964.98 857.02 1007.87 795.61 1038.55 C 762.49 1055.16 727.68 1068.36 691.97 1078.19 C 650.17 1089.60 606.96 1095.55 563.69 1097.00 L 529.60 1097.00 C 484.22 1095.08 439.00 1088.20 395.37 1075.45 C 295.19 1046.58 203.89 988.09 135.43 909.49 C 88.62 855.93 52.19 793.26 29.25 725.90 C 15.62 685.78 6.56 644.09 2.47 601.91 C 1.20 589.79 0.74 577.60 0.00 565.44 L 0.00 537.32 C 1.76 456.70 21.14 376.43 57.22 304.26 C 87.58 243.17 129.54 187.91 180.09 142.11 C 231.42 95.53 291.63 58.74 356.57 34.50 C 414.01 13.05 475.06 1.47 536.34 0.00 Z" />
<path fill="#030303" opacity="1.00" d=" M 863.39 313.59 C 869.93 313.52 876.53 313.19 883.06 313.79 C 883.24 402.05 883.01 490.32 883.18 578.58 C 885.64 577.31 887.09 574.86 888.85 572.83 C 926.55 526.54 964.24 480.23 1001.95 433.95 C 1003.33 432.05 1005.85 432.04 1007.98 432.06 C 1014.85 432.20 1021.74 432.04 1028.62 432.18 C 1027.16 435.09 1024.86 437.43 1022.82 439.92 C 999.57 468.30 976.28 496.63 953.02 524.99 C 951.80 526.38 950.53 528.26 952.07 529.95 C 981.88 577.78 1012.04 625.39 1041.82 673.23 C 1034.01 674.92 1025.85 673.95 1017.92 673.83 C 1014.57 670.16 1012.60 665.37 1009.74 661.30 C 996.49 639.87 983.25 618.44 969.98 597.03 C 959.07 579.69 948.68 562.00 937.42 544.90 C 921.09 563.38 905.30 582.35 889.09 600.94 C 886.59 603.85 883.43 606.81 883.21 610.90 C 882.87 631.89 883.45 652.90 882.93 673.89 C 876.94 674.40 870.95 673.80 864.97 674.12 C 863.46 674.17 860.85 674.20 861.10 672.03 C 861.16 553.68 861.08 435.32 861.14 316.97 C 861.01 315.47 861.50 313.50 863.39 313.59 Z" />
<path fill="#030303" opacity="1.00" d=" M 163.16 426.29 C 183.91 423.97 205.52 429.23 222.56 441.37 C 238.24 452.35 249.54 468.61 256.87 486.10 C 264.99 505.29 267.97 526.23 268.68 546.93 C 269.29 569.24 266.23 591.76 258.84 612.85 C 252.63 630.52 242.33 646.97 227.98 659.15 C 215.44 670.06 199.60 677.22 183.02 678.87 C 165.52 680.63 147.27 677.86 131.74 669.35 C 117.83 661.83 106.60 650.07 98.13 636.85 C 87.40 620.01 81.53 600.51 78.62 580.88 C 75.15 555.14 76.07 528.64 82.59 503.45 C 88.70 481.04 100.08 459.21 118.48 444.51 C 131.21 434.30 146.95 428.01 163.16 426.29 M 160.52 442.69 C 150.68 444.38 141.19 448.17 133.01 453.92 C 120.14 463.07 110.71 476.45 104.75 490.95 C 96.04 511.75 93.47 534.59 93.96 556.97 C 94.44 577.86 98.04 598.97 106.83 618.05 C 113.24 631.69 122.64 644.30 135.39 652.60 C 150.38 662.52 169.42 666.08 186.96 662.10 C 201.74 658.91 215.18 650.45 224.90 638.93 C 235.12 627.16 241.51 612.55 245.37 597.57 C 251.82 573.69 252.86 548.47 249.06 524.06 C 247.06 510.96 243.93 497.90 238.06 485.95 C 231.35 472.24 221.64 459.52 208.37 451.61 C 194.20 442.97 176.85 439.83 160.52 442.69 Z" />
<path fill="#030303" opacity="1.00" d=" M 652.78 438.83 C 664.69 431.82 678.11 427.19 691.96 426.34 C 710.17 424.88 729.75 428.12 744.50 439.54 C 757.82 449.98 764.92 466.31 768.28 482.51 C 770.77 494.49 771.59 506.76 771.51 518.98 C 771.49 566.32 771.51 613.67 771.50 661.01 C 771.43 665.35 771.74 669.71 771.21 674.04 C 764.46 674.08 757.70 674.33 750.97 673.97 C 749.40 673.96 749.39 672.10 749.40 671.02 C 749.34 620.01 749.40 569.00 749.37 517.99 C 749.35 503.65 747.70 489.08 742.37 475.67 C 737.78 463.60 728.00 453.45 715.60 449.46 C 698.01 443.74 678.28 445.68 661.72 453.70 C 644.27 462.22 630.36 476.17 616.56 489.51 C 613.66 491.86 614.63 495.80 614.49 499.05 C 614.52 556.66 614.49 614.28 614.51 671.90 C 614.70 674.37 611.73 674.18 610.04 674.12 C 604.71 673.78 599.36 674.26 594.04 674.00 C 592.40 673.98 592.38 672.17 592.38 671.03 C 592.37 592.68 592.38 514.33 592.37 435.99 C 592.48 434.69 591.97 432.20 594.01 432.24 C 599.34 432.01 604.71 432.05 610.05 432.19 C 611.82 432.40 611.49 434.62 611.72 435.89 C 612.27 446.89 613.02 457.88 613.58 468.89 C 614.86 469.54 615.76 468.42 616.64 467.66 C 627.75 456.96 639.39 446.60 652.78 438.83 Z" />
<path fill="#030303" opacity="1.00" d=" M 486.25 432.40 C 491.78 431.63 497.45 432.01 503.04 432.11 C 504.76 431.78 504.40 433.96 504.52 434.97 C 504.48 493.97 504.51 552.97 504.50 611.97 C 504.38 632.39 504.74 652.84 504.33 673.24 C 500.30 675.22 495.33 673.40 490.94 674.09 C 489.01 673.89 485.10 675.03 485.04 672.06 C 484.94 593.71 485.05 515.34 484.98 436.99 C 485.19 435.49 484.60 433.23 486.25 432.40 Z" />
</g>
<g id="#13b488ff">
<path fill="#13b488" opacity="1.00" d=" M 486.50 342.69 C 492.49 342.22 498.54 342.37 504.56 342.58 C 506.27 342.62 506.75 344.53 506.63 345.94 C 506.55 351.13 506.83 356.35 506.48 361.54 C 506.13 363.63 503.61 363.41 502.03 363.50 C 497.03 363.40 492.01 363.77 487.04 363.29 C 484.47 362.95 485.09 359.81 484.98 357.99 C 485.29 353.14 484.37 348.09 485.50 343.37 C 485.75 343.20 486.25 342.86 486.50 342.69 Z" />
</g>
<g id="#36b8ccff">
<path fill="#36b8cc" opacity="1.00" d=" M 295.20 537.32 C 311.81 537.17 328.43 537.27 345.05 537.27 C 347.34 537.12 350.02 538.27 350.27 540.85 C 350.80 545.04 350.74 549.32 350.27 553.51 C 349.91 556.52 346.63 557.49 344.04 557.36 C 328.70 557.40 313.36 557.37 298.03 557.38 C 295.37 557.37 291.76 557.04 290.91 553.98 C 290.02 550.08 290.33 545.99 290.51 542.03 C 290.55 539.48 292.59 537.24 295.20 537.32 Z" />
</g>
</svg>
